<?xml version="1.0" encoding="UTF-8" standalone="no"?><svg xmlns="http://www.w3.org/2000/svg" xmlns:xlink="http://www.w3.org/1999/xlink" contentStyleType="text/css" height="430px" preserveAspectRatio="none" style="width:438px;height:430px;background:#FFFFFF;" version="1.1" viewBox="0 0 438 430" width="438px" zoomAndPan="magnify"><defs/><g><!--MD5=[2ce0c9fb7f55b1e256ab28a8ea6b25ec]
class Customer--><g id="elem_Customer"><rect codeLine="3" fill="#F1F1F1" height="162.0781" id="Customer" rx="2.5" ry="2.5" style="stroke:#181818;stroke-width:0.5;" width="181" x="243" y="7"/><ellipse cx="294.25" cy="23" fill="#ADD1B2" rx="11" ry="11" style="stroke:#181818;stroke-width:1.0;"/><path d="M293.0469,23.875 L294.5,23.875 L294.5,23.9844 C294.5,24.3906 294.5313,24.5469 294.6094,24.7031 C294.7656,24.9531 295.0469,25.1094 295.3438,25.1094 C295.5938,25.1094 295.8594,24.9688 296.0156,24.75 C296.1406,24.5938 296.1719,24.4375 296.1719,23.9844 L296.1719,22.0625 C296.1719,21.9063 296.1719,21.8594 296.1563,21.7031 C296.0938,21.2344 295.7813,20.9219 295.3281,20.9219 C295.0781,20.9219 294.8125,21.0625 294.6406,21.2813 C294.5313,21.4531 294.5,21.6094 294.5,22.0625 L294.5,22.1875 L293.0469,22.1875 L293.0469,19.7813 L297.0313,19.7813 L297.0313,20.6406 C297.0313,21.0469 297.0625,21.2188 297.1406,21.375 C297.3125,21.625 297.5938,21.7813 297.875,21.7813 C298.1406,21.7813 298.4063,21.6406 298.5781,21.4219 C298.6875,21.25 298.7188,21.1094 298.7188,20.6406 L298.7188,18.0938 L291.0938,18.0938 C290.6563,18.0938 290.5313,18.1094 290.375,18.2031 C290.125,18.3594 289.9688,18.6563 289.9688,18.9375 C289.9688,19.2188 290.1094,19.4688 290.3281,19.6406 C290.4844,19.75 290.6719,19.7813 291.0938,19.7813 L291.3438,19.7813 L291.3438,26.2969 L291.0938,26.2969 C290.6875,26.2969 290.5313,26.3125 290.375,26.4219 C290.125,26.5938 289.9688,26.8594 289.9688,27.1563 C289.9688,27.4219 290.1094,27.6719 290.3281,27.8281 C290.4688,27.9531 290.7031,28 291.0938,28 L299.0938,28 L299.0938,25.4219 C299.0938,24.9844 299.0625,24.8438 298.9844,24.6875 C298.8125,24.4375 298.5313,24.2813 298.25,24.2813 C297.9844,24.2813 297.7188,24.3906 297.5469,24.6406 C297.4375,24.7969 297.4063,24.9375 297.4063,25.4219 L297.4063,26.2969 L293.0469,26.2969 L293.0469,23.875 Z " fill="#000000"/><text fill="#000000" font-family="sans-serif" font-size="14" lengthAdjust="spacing" textLength="70" x="314.75" y="27.8467">Customer</text><line style="stroke:#181818;stroke-width:0.5;" x1="244" x2="423" y1="39" y2="39"/><ellipse cx="254" cy="50" fill="#000000" rx="3" ry="3" style="stroke:#000000;stroke-width:1.0;"/><text fill="#000000" font-family="sans-serif" font-size="14" lengthAdjust="spacing" textLength="66" x="263" y="55.9951">id: String</text><ellipse cx="254" cy="66.2969" fill="#000000" rx="3" ry="3" style="stroke:#000000;stroke-width:1.0;"/><text fill="#000000" font-family="sans-serif" font-size="14" lengthAdjust="spacing" textLength="93" x="263" y="72.292">name: String</text><ellipse cx="254" cy="82.5938" fill="#000000" rx="3" ry="3" style="stroke:#000000;stroke-width:1.0;"/><text fill="#000000" font-family="sans-serif" font-size="14" lengthAdjust="spacing" textLength="92" x="263" y="88.5889">email: String</text><ellipse cx="254" cy="98.8906" fill="#000000" rx="3" ry="3" style="stroke:#000000;stroke-width:1.0;"/><text fill="#000000" font-family="sans-serif" font-size="14" lengthAdjust="spacing" textLength="99" x="263" y="104.8857">phone: String</text><ellipse cx="254" cy="115.1875" fill="#000000" rx="3" ry="3" style="stroke:#000000;stroke-width:1.0;"/><text fill="#000000" font-family="sans-serif" font-size="14" lengthAdjust="spacing" textLength="154" x="263" y="121.1826">passwordHash: String</text><ellipse cx="254" cy="131.4844" fill="#000000" rx="3" ry="3" style="stroke:#000000;stroke-width:1.0;"/><text fill="#000000" font-family="sans-serif" font-size="14" lengthAdjust="spacing" textLength="153" x="263" y="137.4795">Chamado: Chamado[]</text><ellipse cx="254" cy="147.7813" fill="#000000" rx="3" ry="3" style="stroke:#000000;stroke-width:1.0;"/><text fill="#000000" font-family="sans-serif" font-size="14" lengthAdjust="spacing" textLength="155" x="263" y="153.7764">Endereco: Endereco[]</text><line style="stroke:#181818;stroke-width:0.5;" x1="244" x2="423" y1="161.0781" y2="161.0781"/></g><!--MD5=[36c1942e8942a3e4f47e6de3733e3d18]
class Endereco--><g id="elem_Endereco"><rect codeLine="13" fill="#F1F1F1" height="162.0781" id="Endereco" rx="2.5" ry="2.5" style="stroke:#181818;stroke-width:0.5;" width="193" x="7" y="245.5"/><ellipse cx="65.25" cy="261.5" fill="#ADD1B2" rx="11" ry="11" style="stroke:#181818;stroke-width:1.0;"/><path d="M64.0469,262.375 L65.5,262.375 L65.5,262.4844 C65.5,262.8906 65.5313,263.0469 65.6094,263.2031 C65.7656,263.4531 66.0469,263.6094 66.3438,263.6094 C66.5938,263.6094 66.8594,263.4688 67.0156,263.25 C67.1406,263.0938 67.1719,262.9375 67.1719,262.4844 L67.1719,260.5625 C67.1719,260.4063 67.1719,260.3594 67.1563,260.2031 C67.0938,259.7344 66.7813,259.4219 66.3281,259.4219 C66.0781,259.4219 65.8125,259.5625 65.6406,259.7813 C65.5313,259.9531 65.5,260.1094 65.5,260.5625 L65.5,260.6875 L64.0469,260.6875 L64.0469,258.2813 L68.0313,258.2813 L68.0313,259.1406 C68.0313,259.5469 68.0625,259.7188 68.1406,259.875 C68.3125,260.125 68.5938,260.2813 68.875,260.2813 C69.1406,260.2813 69.4063,260.1406 69.5781,259.9219 C69.6875,259.75 69.7188,259.6094 69.7188,259.1406 L69.7188,256.5938 L62.0938,256.5938 C61.6563,256.5938 61.5313,256.6094 61.375,256.7031 C61.125,256.8594 60.9688,257.1563 60.9688,257.4375 C60.9688,257.7188 61.1094,257.9688 61.3281,258.1406 C61.4844,258.25 61.6719,258.2813 62.0938,258.2813 L62.3438,258.2813 L62.3438,264.7969 L62.0938,264.7969 C61.6875,264.7969 61.5313,264.8125 61.375,264.9219 C61.125,265.0938 60.9688,265.3594 60.9688,265.6563 C60.9688,265.9219 61.1094,266.1719 61.3281,266.3281 C61.4688,266.4531 61.7031,266.5 62.0938,266.5 L70.0938,266.5 L70.0938,263.9219 C70.0938,263.4844 70.0625,263.3438 69.9844,263.1875 C69.8125,262.9375 69.5313,262.7813 69.25,262.7813 C68.9844,262.7813 68.7188,262.8906 68.5469,263.1406 C68.4375,263.2969 68.4063,263.4375 68.4063,263.9219 L68.4063,264.7969 L64.0469,264.7969 L64.0469,262.375 Z " fill="#000000"/><text fill="#000000" font-family="sans-serif" font-size="14" lengthAdjust="spacing" textLength="68" x="85.75" y="266.3467">Endereco</text><line style="stroke:#181818;stroke-width:0.5;" x1="8" x2="199" y1="277.5" y2="277.5"/><ellipse cx="18" cy="288.5" fill="#000000" rx="3" ry="3" style="stroke:#000000;stroke-width:1.0;"/><text fill="#000000" font-family="sans-serif" font-size="14" lengthAdjust="spacing" textLength="66" x="27" y="294.4951">id: String</text><ellipse cx="18" cy="304.7969" fill="#000000" rx="3" ry="3" style="stroke:#000000;stroke-width:1.0;"/><text fill="#000000" font-family="sans-serif" font-size="14" lengthAdjust="spacing" textLength="98" x="27" y="310.792">street: String</text><ellipse cx="18" cy="321.0938" fill="#000000" rx="3" ry="3" style="stroke:#000000;stroke-width:1.0;"/><text fill="#000000" font-family="sans-serif" font-size="14" lengthAdjust="spacing" textLength="85" x="27" y="327.0889">number: Int</text><ellipse cx="18" cy="337.3906" fill="#000000" rx="3" ry="3" style="stroke:#000000;stroke-width:1.0;"/><text fill="#000000" font-family="sans-serif" font-size="14" lengthAdjust="spacing" textLength="80" x="27" y="343.3857">city: String</text><ellipse cx="18" cy="353.6875" fill="#000000" rx="3" ry="3" style="stroke:#000000;stroke-width:1.0;"/><text fill="#000000" font-family="sans-serif" font-size="14" lengthAdjust="spacing" textLength="146" x="27" y="359.6826">complement: String</text><ellipse cx="18" cy="369.9844" fill="#000000" rx="3" ry="3" style="stroke:#000000;stroke-width:1.0;"/><text fill="#000000" font-family="sans-serif" font-size="14" lengthAdjust="spacing" textLength="167" x="27" y="375.9795">customer_id: Customer</text><ellipse cx="18" cy="386.2813" fill="#000000" rx="3" ry="3" style="stroke:#000000;stroke-width:1.0;"/><text fill="#000000" font-family="sans-serif" font-size="14" lengthAdjust="spacing" textLength="134" x="27" y="392.2764">customerId: String</text><line style="stroke:#181818;stroke-width:0.5;" x1="8" x2="199" y1="399.5781" y2="399.5781"/></g><!--MD5=[9b2a81f0040a6a58d82ebf2324e31e04]
class Chamado--><g id="elem_Chamado"><rect codeLine="23" fill="#F1F1F1" height="194.6719" id="Chamado" rx="2.5" ry="2.5" style="stroke:#181818;stroke-width:0.5;" width="196" x="235.5" y="229"/><ellipse cx="295.75" cy="245" fill="#ADD1B2" rx="11" ry="11" style="stroke:#181818;stroke-width:1.0;"/><path d="M294.5469,245.875 L296,245.875 L296,245.9844 C296,246.3906 296.0313,246.5469 296.1094,246.7031 C296.2656,246.9531 296.5469,247.1094 296.8438,247.1094 C297.0938,247.1094 297.3594,246.9688 297.5156,246.75 C297.6406,246.5938 297.6719,246.4375 297.6719,245.9844 L297.6719,244.0625 C297.6719,243.9063 297.6719,243.8594 297.6563,243.7031 C297.5938,243.2344 297.2813,242.9219 296.8281,242.9219 C296.5781,242.9219 296.3125,243.0625 296.1406,243.2813 C296.0313,243.4531 296,243.6094 296,244.0625 L296,244.1875 L294.5469,244.1875 L294.5469,241.7813 L298.5313,241.7813 L298.5313,242.6406 C298.5313,243.0469 298.5625,243.2188 298.6406,243.375 C298.8125,243.625 299.0938,243.7813 299.375,243.7813 C299.6406,243.7813 299.9063,243.6406 300.0781,243.4219 C300.1875,243.25 300.2188,243.1094 300.2188,242.6406 L300.2188,240.0938 L292.5938,240.0938 C292.1563,240.0938 292.0313,240.1094 291.875,240.2031 C291.625,240.3594 291.4688,240.6563 291.4688,240.9375 C291.4688,241.2188 291.6094,241.4688 291.8281,241.6406 C291.9844,241.75 292.1719,241.7813 292.5938,241.7813 L292.8438,241.7813 L292.8438,248.2969 L292.5938,248.2969 C292.1875,248.2969 292.0313,248.3125 291.875,248.4219 C291.625,248.5938 291.4688,248.8594 291.4688,249.1563 C291.4688,249.4219 291.6094,249.6719 291.8281,249.8281 C291.9688,249.9531 292.2031,250 292.5938,250 L300.5938,250 L300.5938,247.4219 C300.5938,246.9844 300.5625,246.8438 300.4844,246.6875 C300.3125,246.4375 300.0313,246.2813 299.75,246.2813 C299.4844,246.2813 299.2188,246.3906 299.0469,246.6406 C298.9375,246.7969 298.9063,246.9375 298.9063,247.4219 L298.9063,248.2969 L294.5469,248.2969 L294.5469,245.875 Z " fill="#000000"/><text fill="#000000" font-family="sans-serif" font-size="14" lengthAdjust="spacing" textLength="67" x="316.25" y="249.8467">Chamado</text><line style="stroke:#181818;stroke-width:0.5;" x1="236.5" x2="430.5" y1="261" y2="261"/><ellipse cx="246.5" cy="272" fill="#000000" rx="3" ry="3" style="stroke:#000000;stroke-width:1.0;"/><text fill="#000000" font-family="sans-serif" font-size="14" lengthAdjust="spacing" textLength="66" x="255.5" y="277.9951">id: String</text><ellipse cx="246.5" cy="288.2969" fill="#000000" rx="3" ry="3" style="stroke:#000000;stroke-width:1.0;"/><text fill="#000000" font-family="sans-serif" font-size="14" lengthAdjust="spacing" textLength="84" x="255.5" y="294.292">title: String</text><ellipse cx="246.5" cy="304.5938" fill="#000000" rx="3" ry="3" style="stroke:#000000;stroke-width:1.0;"/><text fill="#000000" font-family="sans-serif" font-size="14" lengthAdjust="spacing" textLength="135" x="255.5" y="310.5889">description: String</text><ellipse cx="246.5" cy="320.8906" fill="#000000" rx="3" ry="3" style="stroke:#000000;stroke-width:1.0;"/><text fill="#000000" font-family="sans-serif" font-size="14" lengthAdjust="spacing" textLength="114" x="255.5" y="326.8857">images: String[]</text><ellipse cx="246.5" cy="337.1875" fill="#000000" rx="3" ry="3" style="stroke:#000000;stroke-width:1.0;"/><text fill="#000000" font-family="sans-serif" font-size="14" lengthAdjust="spacing" textLength="97" x="255.5" y="343.1826">status: String</text><ellipse cx="246.5" cy="353.4844" fill="#000000" rx="3" ry="3" style="stroke:#000000;stroke-width:1.0;"/><text fill="#000000" font-family="sans-serif" font-size="14" lengthAdjust="spacing" textLength="147" x="255.5" y="359.4795">customer: Customer</text><text fill="#000000" font-family="sans-serif" font-size="14" lengthAdjust="spacing" textLength="165" x="255.5" y="375.7764">created_at: DateTime?</text><text fill="#000000" font-family="sans-serif" font-size="14" lengthAdjust="spacing" textLength="170" x="255.5" y="392.0732">Updated_at: DateTime?</text><ellipse cx="246.5" cy="402.375" fill="#000000" rx="3" ry="3" style="stroke:#000000;stroke-width:1.0;"/><text fill="#000000" font-family="sans-serif" font-size="14" lengthAdjust="spacing" textLength="134" x="255.5" y="408.3701">customerId: String</text><line style="stroke:#181818;stroke-width:0.5;" x1="236.5" x2="430.5" y1="415.6719" y2="415.6719"/></g><!--MD5=[746c2a5df229e1b181e700251461624d]
link Customer to Chamado--><g id="link_Customer_Chamado"><path codeLine="35" d="M303.333,177.078 C303.333,177.078 303.333,220.731 303.333,220.731 " fill="none" id="Customer-Chamado" style="stroke:#181818;stroke-width:1.0;stroke-dasharray:7.0,7.0;"/><line style="stroke:#181818;stroke-width:1.0;" x1="303.333" x2="309.333" y1="220.731" y2="228.731"/><line style="stroke:#181818;stroke-width:1.0;" x1="303.333" x2="297.333" y1="220.731" y2="228.731"/><line style="stroke:#181818;stroke-width:1.0;" x1="303.333" x2="303.333" y1="220.731" y2="228.731"/><line style="stroke:#181818;stroke-width:1.0;" x1="307.333" x2="299.333" y1="218.731" y2="218.731"/><line style="stroke:#181818;stroke-width:1.0;" x1="299.333" x2="307.333" y1="173.078" y2="173.078"/><line style="stroke:#181818;stroke-width:1.0;" x1="299.333" x2="307.333" y1="176.078" y2="176.078"/><line style="stroke:#181818;stroke-width:1.0;" x1="303.333" x2="303.333" y1="177.078" y2="169.078"/></g><!--MD5=[746c2a5df229e1b181e700251461624d]
link Customer to Chamado--><g id="link_Customer_Chamado"><path codeLine="37" d="M363.667,177.078 C363.667,177.078 363.667,220.731 363.667,220.731 " fill="none" id="Customer-Chamado-1" style="stroke:#181818;stroke-width:1.0;stroke-dasharray:7.0,7.0;"/><line style="stroke:#181818;stroke-width:1.0;" x1="363.667" x2="369.667" y1="220.731" y2="228.731"/><line style="stroke:#181818;stroke-width:1.0;" x1="363.667" x2="357.667" y1="220.731" y2="228.731"/><line style="stroke:#181818;stroke-width:1.0;" x1="363.667" x2="363.667" y1="220.731" y2="228.731"/><line style="stroke:#181818;stroke-width:1.0;" x1="367.667" x2="359.667" y1="218.731" y2="218.731"/><line style="stroke:#181818;stroke-width:1.0;" x1="359.667" x2="367.667" y1="173.078" y2="173.078"/><line style="stroke:#181818;stroke-width:1.0;" x1="359.667" x2="367.667" y1="176.078" y2="176.078"/><line style="stroke:#181818;stroke-width:1.0;" x1="363.667" x2="363.667" y1="177.078" y2="169.078"/></g><!--MD5=[a4fd2c462370cda75a7a884d2df002e2]
link Customer to Endereco--><g id="link_Customer_Endereco"><path codeLine="36" d="M234.928,88 C234.928,88 103.5,88 103.5,88 C103.5,88 103.5,237.422 103.5,237.422 " fill="none" id="Customer-Endereco" style="stroke:#181818;stroke-width:1.0;stroke-dasharray:7.0,7.0;"/><line style="stroke:#181818;stroke-width:1.0;" x1="103.5" x2="109.5" y1="237.422" y2="245.422"/><line style="stroke:#181818;stroke-width:1.0;" x1="103.5" x2="97.5" y1="237.422" y2="245.422"/><line style="stroke:#181818;stroke-width:1.0;" x1="103.5" x2="103.5" y1="237.422" y2="245.422"/><line style="stroke:#181818;stroke-width:1.0;" x1="107.5" x2="99.5" y1="235.422" y2="235.422"/><line style="stroke:#181818;stroke-width:1.0;" x1="238.928" x2="238.928" y1="84" y2="92"/><line style="stroke:#181818;stroke-width:1.0;" x1="235.928" x2="235.928" y1="84" y2="92"/><line style="stroke:#181818;stroke-width:1.0;" x1="234.928" x2="242.928" y1="88" y2="88"/></g><!--MD5=[b951acf5204a75451bf2f504792c2028]
@startuml
skinparam linetype ortho

entity Customer {
  * id: String
  * name: String
  * email: String
  * phone: String
  * passwordHash: String
  * Chamado: Chamado[]
  * Endereco: Endereco[]
}

entity Endereco {
  * id: String
  * street: String
  * number: Int
  * city: String
  * complement: String
  * customer_id: Customer
  * customerId: String
}

entity Chamado {
  * id: String
  * title: String
  * description: String
  * images: String[]
  * status: String
  * customer: Customer
  created_at: DateTime?
  Updated_at: DateTime?
  * customerId: String
}

Customer ||..|{ Chamado
Customer ||..|{ Endereco
Customer ||..|{ Chamado
@enduml

PlantUML version 1.2022.4beta2(Unknown compile time)
(GPL source distribution)
Java Runtime: Java(TM) SE Runtime Environment
JVM: Java HotSpot(TM) 64-Bit Server VM
Default Encoding: UTF-8
Language: en
Country: US
--></g></svg>